<svg width="1280" height="640" viewBox="0 0 1280 640" fill="none" xmlns="http://www.w3.org/2000/svg">
  <defs>
    <linearGradient id="bg" x1="80" y1="48" x2="1184" y2="592" gradientUnits="userSpaceOnUse">
      <stop stop-color="#131B2B"/>
      <stop offset="1" stop-color="#0B1220"/>
    </linearGradient>
    <radialGradient id="glowA" cx="0" cy="0" r="1" gradientUnits="userSpaceOnUse" gradientTransform="translate(240 140) rotate(45) scale(360 240)">
      <stop stop-color="#1D4ED8" stop-opacity="0.24"/>
      <stop offset="1" stop-color="#1D4ED8" stop-opacity="0"/>
    </radialGradient>
    <radialGradient id="glowB" cx="0" cy="0" r="1" gradientUnits="userSpaceOnUse" gradientTransform="translate(1040 520) rotate(45) scale(320 220)">
      <stop stop-color="#F97316" stop-opacity="0.22"/>
      <stop offset="1" stop-color="#F97316" stop-opacity="0"/>
    </radialGradient>
    <filter id="shadow" x="0" y="0" width="1280" height="640" filterUnits="userSpaceOnUse" color-interpolation-filters="sRGB">
      <feDropShadow dx="0" dy="20" stdDeviation="24" flood-color="#020617" flood-opacity="0.26"/>
    </filter>
  </defs>

  <rect width="1280" height="640" rx="0" fill="#09101C"/>
  <rect x="40" y="36" width="1200" height="568" rx="30" fill="url(#bg)" stroke="#334155" stroke-opacity="0.45" filter="url(#shadow)"/>
  <rect x="40" y="36" width="1200" height="568" rx="30" fill="url(#glowA)"/>
  <rect x="40" y="36" width="1200" height="568" rx="30" fill="url(#glowB)"/>

  <rect x="88" y="88" width="56" height="56" rx="16" fill="#1E293B"/>
  <path d="M116 104L128 110V120C128 129 120.5 136 116 138C111.5 136 104 129 104 120V110L116 104Z" stroke="#E2E8F0" stroke-width="2.5" stroke-linejoin="round"/>
  <path d="M111 119H121" stroke="#E2E8F0" stroke-width="2.5" stroke-linecap="round"/>
  <path d="M109 115H123" stroke="#E2E8F0" stroke-width="2.5" stroke-linecap="round"/>

  <circle cx="182" cy="116" r="6" fill="#F97316"/>
  <text x="198" y="124" fill="#CBD5E1" font-size="24" font-family="Inter, Segoe UI, Arial, sans-serif" letter-spacing="6">CAMPUSCORE</text>

  <text x="88" y="230" fill="#F8FAFC" font-size="74" font-weight="700" font-family="Inter, Segoe UI, Arial, sans-serif">Production-like</text>
  <text x="88" y="314" fill="#F8FAFC" font-size="74" font-weight="700" font-family="Inter, Segoe UI, Arial, sans-serif">campus microservices</text>
  <text x="88" y="396" fill="#94A3B8" font-size="30" font-family="Inter, Segoe UI, Arial, sans-serif">Bilingual UX, operator observability, student payments,</text>
  <text x="88" y="438" fill="#94A3B8" font-size="30" font-family="Inter, Segoe UI, Arial, sans-serif">and release-verified runtime boundaries in one platform.</text>

  <rect x="88" y="494" width="248" height="58" rx="18" fill="#E2E8F0" fill-opacity="0.06" stroke="#475569"/>
  <text x="116" y="530" fill="#E2E8F0" font-size="24" font-family="Inter, Segoe UI, Arial, sans-serif">Next.js + NestJS</text>

  <rect x="354" y="494" width="222" height="58" rx="18" fill="#E2E8F0" fill-opacity="0.06" stroke="#475569"/>
  <text x="382" y="530" fill="#E2E8F0" font-size="24" font-family="Inter, Segoe UI, Arial, sans-serif">9-image release</text>

  <rect x="594" y="494" width="266" height="58" rx="18" fill="#E2E8F0" fill-opacity="0.06" stroke="#475569"/>
  <text x="622" y="530" fill="#E2E8F0" font-size="24" font-family="Inter, Segoe UI, Arial, sans-serif">Grafana + Prometheus</text>

  <rect x="896" y="106" width="272" height="156" rx="24" fill="#0F172A" fill-opacity="0.72" stroke="#334155"/>
  <text x="930" y="152" fill="#CBD5E1" font-size="18" font-family="Inter, Segoe UI, Arial, sans-serif" letter-spacing="3">OPERATOR SURFACES</text>
  <text x="930" y="198" fill="#F8FAFC" font-size="34" font-weight="700" font-family="Inter, Segoe UI, Arial, sans-serif">Admin cockpit</text>
  <text x="930" y="235" fill="#94A3B8" font-size="22" font-family="Inter, Segoe UI, Arial, sans-serif">Health, analytics, logs, traces,</text>
  <text x="930" y="266" fill="#94A3B8" font-size="22" font-family="Inter, Segoe UI, Arial, sans-serif">and release verification.</text>

  <rect x="896" y="286" width="272" height="220" rx="24" fill="#0F172A" fill-opacity="0.72" stroke="#334155"/>
  <text x="930" y="330" fill="#CBD5E1" font-size="18" font-family="Inter, Segoe UI, Arial, sans-serif" letter-spacing="3">STUDENT CORE</text>
  <text x="930" y="378" fill="#F8FAFC" font-size="34" font-weight="700" font-family="Inter, Segoe UI, Arial, sans-serif">Checkout + billing</text>
  <text x="930" y="418" fill="#94A3B8" font-size="22" font-family="Inter, Segoe UI, Arial, sans-serif">Sandbox-ready flows for</text>
  <text x="930" y="449" fill="#94A3B8" font-size="22" font-family="Inter, Segoe UI, Arial, sans-serif">VNPay, ZaloPay, MoMo,</text>
  <text x="930" y="480" fill="#94A3B8" font-size="22" font-family="Inter, Segoe UI, Arial, sans-serif">PayPal, and hosted cards.</text>

  <text x="88" y="588" fill="#64748B" font-size="20" font-family="Inter, Segoe UI, Arial, sans-serif">tienson.io.vn</text>
</svg>
